<svg xmlns="http://www.w3.org/2000/svg" viewBox="0 0 520 320" width="100%" height="100%" style="max-width: 520px; max-height: 320px; display: block; margin: 0 auto; font-family: system-ui, -apple-system, sans-serif;">
  <defs>
    <marker id="arrow" viewBox="0 0 10 10" refX="5" refY="5" markerWidth="6" markerHeight="6" orient="auto-start-reverse">
      <path d="M 0 1.5 L 10 5 L 0 8.5 z" fill="#1e3a8a" />
    </marker>
    <marker id="arrow-red" viewBox="0 0 10 10" refX="5" refY="5" markerWidth="6" markerHeight="6" orient="auto-start-reverse">
      <path d="M 0 1.5 L 10 5 L 0 8.5 z" fill="#dc2626" />
    </marker>
    <marker id="arrow-black" viewBox="0 0 10 10" refX="5" refY="5" markerWidth="6" markerHeight="6" orient="auto-start-reverse">
      <path d="M 0 1.5 L 10 5 L 0 8.5 z" fill="#1f2937" />
    </marker>
  </defs>
  
  <rect x="20" y="240" width="480" height="50" fill="#cffafe" stroke="#0284c7" stroke-width="2" />
  <path d="M 30 255 Q 60 250 90 255 T 150 255 T 210 255 T 270 255 T 330 255 T 390 255 T 450 255" fill="none" stroke="#38bdf8" stroke-width="2" />
  <rect x="50" y="80" width="45" height="160" fill="#94a3b8" stroke="#334155" stroke-width="2" />
  <rect x="58" y="55" width="29" height="25" fill="#ef4444" stroke="#991b1b" stroke-width="2" />
  <circle cx="72" cy="45" r="8" fill="#facc15" stroke="#ca8a04" stroke-width="2" />
  <line x1="72" y1="55" x2="450" y2="55" stroke="#374151" stroke-width="2" stroke-dasharray="5,4" />
  <text x="460" y="60" fill="#374151" font-size="15" font-weight="bold">x</text>
  <path d="M 230 240 L 270 240 L 260 255 L 240 255 Z" fill="#92400e" stroke="#451a03" stroke-width="1.5" />
  <rect x="245" y="230" width="10" height="10" fill="#f97316" />
  <text x="250" y="275" fill="#1f2937" font-size="15" font-weight="bold" text-anchor="middle">C (Cứu hộ)</text>
  <path d="M 400 240 L 440 240 L 430 255 L 410 255 Z" fill="#92400e" stroke="#451a03" stroke-width="1.5" />
  <rect x="415" y="230" width="10" height="10" fill="#3b82f6" />
  <text x="420" y="275" fill="#1f2937" font-size="15" font-weight="bold" text-anchor="middle">D (Thuyền cá)</text>
  <line x1="72" y1="55" x2="250" y2="240" stroke="#dc2626" stroke-width="2.5" stroke-dasharray="6,4" />
  <line x1="72" y1="55" x2="420" y2="240" stroke="#dc2626" stroke-width="2.5" stroke-dasharray="6,4" />
  <path d="M 130 55 A 60 60 0 0 1 114 98" fill="none" stroke="#dc2626" stroke-width="2" />
  <text x="135" y="90" fill="#dc2626" font-size="14" font-weight="bold">45°</text>
  <path d="M 190 55 A 120 120 0 0 1 176 112" fill="none" stroke="#dc2626" stroke-width="2" />
  <text x="200" y="80" fill="#dc2626" font-size="14" font-weight="bold">30°</text>
  <text x="40" y="55" fill="#1f2937" font-size="16" font-weight="bold">A</text>
  <text x="45" y="255" fill="#1f2937" font-size="16" font-weight="bold">H</text>
  <line x1="30" y1="240" x2="30" y2="55" stroke="#1e3a8a" stroke-width="2" marker-start="url(#arrow)" marker-end="url(#arrow)" />
  <text x="20" y="150" fill="#1e3a8a" font-size="15" font-weight="bold" text-anchor="end">60 m</text>

</svg>