<svg xmlns="http://www.w3.org/2000/svg" viewBox="0 0 360 280" width="100%" height="100%" style="max-width: 360px; max-height: 280px; display: block; margin: 0 auto; font-family: system-ui, -apple-system, sans-serif;">
  <defs>
    <marker id="arrow" viewBox="0 0 10 10" refX="5" refY="5" markerWidth="6" markerHeight="6" orient="auto-start-reverse">
      <path d="M 0 1.5 L 10 5 L 0 8.5 z" fill="#1e3a8a" />
    </marker>
    <marker id="arrow-red" viewBox="0 0 10 10" refX="5" refY="5" markerWidth="6" markerHeight="6" orient="auto-start-reverse">
      <path d="M 0 1.5 L 10 5 L 0 8.5 z" fill="#dc2626" />
    </marker>
    <marker id="arrow-black" viewBox="0 0 10 10" refX="5" refY="5" markerWidth="6" markerHeight="6" orient="auto-start-reverse">
      <path d="M 0 1.5 L 10 5 L 0 8.5 z" fill="#1f2937" />
    </marker>
  </defs>
  
  <line x1="20" y1="240" x2="340" y2="240" stroke="#374151" stroke-width="3" />
  <rect x="250" y="40" width="45" height="200" fill="#d1d5db" stroke="#4b5563" stroke-width="2" />
  <text x="272" y="140" fill="#4b5563" font-size="13" font-weight="bold" writing-mode="tb" text-anchor="middle">TƯỜNG</text>
  <path d="M 235 240 L 235 225 L 250 225" fill="none" stroke="#dc2626" stroke-width="2" />
  <line x1="70" y1="240" x2="250" y2="60" stroke="#92400e" stroke-width="6" stroke-linecap="round" />
  <line x1="95" y1="215" x2="105" y2="225" stroke="#78350f" stroke-width="3" />
  <line x1="125" y1="185" x2="135" y2="195" stroke="#78350f" stroke-width="3" />
  <line x1="155" y1="155" x2="165" y2="165" stroke="#78350f" stroke-width="3" />
  <line x1="185" y1="125" x2="195" y2="135" stroke="#78350f" stroke-width="3" />
  <line x1="215" y1="95" x2="225" y2="105" stroke="#78350f" stroke-width="3" />
  <text x="140" y="130" fill="#1e3a8a" font-size="17" font-weight="bold">5 m</text>
  <path d="M 120 240 A 50 50 0 0 0 105 205" fill="none" stroke="#dc2626" stroke-width="2" />
  <text x="125" y="225" fill="#dc2626" font-size="17" font-weight="bold">α</text>
  <line x1="70" y1="260" x2="250" y2="260" stroke="#1f2937" stroke-width="2" marker-start="url(#arrow-black)" marker-end="url(#arrow-black)" />
  <text x="160" y="275" fill="#1f2937" font-size="16" font-weight="bold" text-anchor="middle">x</text>

</svg>