<svg xmlns="http://www.w3.org/2000/svg" viewBox="0 0 480 300" width="100%" height="100%" style="max-width: 480px; max-height: 300px; display: block; margin: 0 auto; font-family: system-ui, -apple-system, sans-serif;">
  <defs>
    <marker id="arrow" viewBox="0 0 10 10" refX="5" refY="5" markerWidth="6" markerHeight="6" orient="auto-start-reverse">
      <path d="M 0 1.5 L 10 5 L 0 8.5 z" fill="#1e3a8a" />
    </marker>
    <marker id="arrow-red" viewBox="0 0 10 10" refX="5" refY="5" markerWidth="6" markerHeight="6" orient="auto-start-reverse">
      <path d="M 0 1.5 L 10 5 L 0 8.5 z" fill="#dc2626" />
    </marker>
    <marker id="arrow-black" viewBox="0 0 10 10" refX="5" refY="5" markerWidth="6" markerHeight="6" orient="auto-start-reverse">
      <path d="M 0 1.5 L 10 5 L 0 8.5 z" fill="#1f2937" />
    </marker>
  </defs>
  
  <path d="M 20 250 L 90 250 L 90 120 L 20 120 Z" fill="#9ca3af" stroke="#4b5563" stroke-width="2" />
  <text x="55" y="190" fill="#374151" font-size="14" font-weight="bold" text-anchor="middle">VÁCH ĐÁ</text>
  <rect x="90" y="240" width="370" height="50" fill="#bae6fd" stroke="#0284c7" stroke-width="2" />
  <polygon points="45,120 65,120 60,60 50,60" fill="#f8fafc" stroke="#334155" stroke-width="2" />
  <rect x="48" y="45" width="14" height="15" fill="#ef4444" stroke="#991b1b" stroke-width="1.5" />
  <circle cx="55" cy="40" r="5" fill="#facc15" />
  <line x1="55" y1="50" x2="350" y2="50" stroke="#374151" stroke-width="2" stroke-dasharray="5,4" />
  <text x="360" y="55" fill="#374151" font-size="14" font-weight="bold">x</text>
  <path d="M 370 240 L 410 240 L 400 255 L 380 255 Z" fill="#92400e" stroke="#451a03" stroke-width="1.5" />
  <polygon points="390,240 390,215 405,240" fill="#f8fafc" stroke="#475569" stroke-width="1" />
  <text x="390" y="275" fill="#1f2937" font-size="15" font-weight="bold" text-anchor="middle">B (Tàu)</text>
  <line x1="55" y1="50" x2="55" y2="240" stroke="#dc2626" stroke-width="2" stroke-dasharray="5,4" />
  <line x1="55" y1="240" x2="390" y2="240" stroke="#dc2626" stroke-width="2" stroke-dasharray="5,4" />
  <line x1="55" y1="50" x2="390" y2="240" stroke="#dc2626" stroke-width="2.5" stroke-dasharray="6,4" />
  <path d="M 75 240 L 75 220 L 55 220" fill="none" stroke="#dc2626" stroke-width="2" />
  <path d="M 135 50 A 80 80 0 0 1 127 84" fill="none" stroke="#dc2626" stroke-width="2" />
  <text x="145" y="75" fill="#dc2626" font-size="14" font-weight="bold">25°</text>
  <path d="M 330 240 A 60 60 0 0 1 345 214" fill="none" stroke="#dc2626" stroke-width="2" />
  <text x="315" y="225" fill="#dc2626" font-size="14" font-weight="bold">25°</text>
  <text x="35" y="55" fill="#1f2937" font-size="16" font-weight="bold">A</text>
  <text x="35" y="245" fill="#1f2937" font-size="16" font-weight="bold">H</text>
  <line x1="15" y1="240" x2="15" y2="50" stroke="#1e3a8a" stroke-width="2" marker-start="url(#arrow)" marker-end="url(#arrow)" />
  <text x="10" y="150" fill="#1e3a8a" font-size="15" font-weight="bold" text-anchor="end">150 m</text>
  <line x1="55" y1="285" x2="390" y2="285" stroke="#1e3a8a" stroke-width="2" marker-start="url(#arrow)" marker-end="url(#arrow)" />
  <text x="220" y="298" fill="#1e3a8a" font-size="15" font-weight="bold" text-anchor="middle">d = ?</text>

</svg>